<svg xmlns="http://www.w3.org/2000/svg" width="48" height="48" id="code"><path d="M10.145 0A10.123 10.123 0 0 0 0 10.145v27.71C0 43.475 4.525 48 10.145 48h27.71C43.475 48 48 43.475 48 37.855v-27.71C48 4.525 43.475 0 37.855 0h-27.71zm22.79 15.498c.322 0 .9-.023 1.458.12.279.07.564.184.804.41.24.225.403.576.403.956v5.002c0-.047.022.076.129.229.106.152.269.34.439.525.17.185.346.368.494.543.074.088.143.172.203.27.06.097.135.202.135.42 0 .22-.086.336-.152.431a1.953 1.953 0 0 1-.213.25c-.152.156-.328.312-.494.477-.333.33-.563.689-.563.853v5.032c0 .411-.201.783-.469 1.004-.267.22-.574.323-.867.386-.585.127-1.193.088-1.306.088v-1c.233 0 .696.023 1.095-.064.2-.044.361-.116.442-.182.08-.066.105-.092.105-.232v-5.032c0-.707.48-1.187.858-1.562.188-.187.367-.35.482-.467-.01-.01-.01-.013-.02-.025-.114-.135-.286-.316-.466-.512a6.14 6.14 0 0 1-.524-.629c-.156-.224-.308-.456-.308-.8v-5.003c0-.14-.025-.171-.086-.228a.893.893 0 0 0-.37-.17c-.356-.088-.86-.088-1.208-.088v-1.002zm-17.87.002v1.002c-.35 0-.855-.003-1.211.088a.892.892 0 0 0-.368.17c-.06.057-.086.087-.086.228v5.002c0 .345-.152.577-.308.801a6.14 6.14 0 0 1-.524.629c-.18.196-.354.377-.468.512-.01.01-.011.014-.02.025.115.117.293.281.482.469.379.375.86.854.86 1.562v5.032c0 .14.023.166.103.232.08.066.244.139.444.182.4.086.862.062 1.095.062v1c-.113 0-.72.04-1.306-.088-.293-.063-.602-.166-.87-.387a1.324 1.324 0 0 1-.466-1.003v-5.032c0-.164-.232-.523-.565-.853-.166-.165-.34-.321-.492-.477a1.965 1.965 0 0 1-.215-.25c-.066-.095-.15-.211-.15-.431 0-.218.074-.322.135-.42.06-.098.127-.182.2-.27.15-.175.327-.358.497-.543.17-.185.333-.373.44-.525.106-.153.128-.276.128-.229v-5.002c0-.38.16-.731.4-.957.24-.225.528-.339.807-.41.558-.142 1.136-.119 1.457-.119zm12.501 1a.333.333 0 0 1 .239.063l1.982 1.425c.15.108.18.294.072.444l-1.193 1.658-2.512-1.78 1.207-1.675a.315.315 0 0 1 .205-.133V16.5zm-1.978 2.635L28.08 20.9l-6.336 8.803-2.502-1.8 6.346-8.768zm-6.844 9.642 2.326 1.674-2.836 1.488.51-3.162z"></path></svg>